<svg width="20" height="20" viewBox="0 0 20 20" fill="none" xmlns="http://www.w3.org/2000/svg">
<g clip-path="url(#clip0_3603_1715)">
<path d="M16.3497 14.4957L15.6094 13.8234L15.6094 13.8234L16.3497 14.4957ZM11.0204 16.611L11.1296 17.605H11.1296L11.0204 16.611ZM12.927 17.3181L12.3903 18.1619V18.1619L12.927 17.3181ZM12.218 16.8672L12.7547 16.0234L12.7547 16.0234L12.218 16.8672ZM11.6867 16.5852L11.4602 17.5592L11.4602 17.5592L11.6867 16.5852ZM15.413 18.1604L14.8334 17.3455L14.8334 17.3455L15.413 18.1604ZM15.21 18.2719L14.8334 17.3455L14.8334 17.3455L15.21 18.2719ZM15.902 15.0549L14.9844 14.6575L14.9844 14.6575L15.902 15.0549ZM15.878 15.1171L16.8245 15.4399L16.8245 15.4399L15.878 15.1171ZM12.4286 6.73814L13.1357 6.03104L13.1357 6.03104L12.4286 6.73814ZM12.5716 6.88112L11.8645 7.58823L11.8645 7.58823L12.5716 6.88112ZM12.5716 9.23814L13.2787 9.94525V9.94525L12.5716 9.23814ZM10.0001 11.8096V12.8096C10.2653 12.8096 10.5197 12.7043 10.7072 12.5167L10.0001 11.8096ZM7.50008 11.8096H6.50008C6.50008 12.3619 6.9478 12.8096 7.50008 12.8096V11.8096ZM7.50008 9.30963L6.79297 8.60253C6.60544 8.79006 6.50008 9.04442 6.50008 9.30963H7.50008ZM10.0716 6.73815L9.36446 6.03104H9.36446L10.0716 6.73815ZM1.66675 9.16666H0.666748C0.666748 13.9576 4.94714 17.6667 10.0001 17.6667V16.6667V15.6667C5.84828 15.6667 2.66675 12.66 2.66675 9.16666H1.66675ZM18.3334 9.16666H19.3334C19.3334 4.37574 15.053 0.666656 10.0001 0.666656V1.66666V2.66666C14.1519 2.66666 17.3334 5.67331 17.3334 9.16666H18.3334ZM10.0001 1.66666V0.666656C4.94714 0.666656 0.666748 4.37574 0.666748 9.16666H1.66675H2.66675C2.66675 5.67331 5.84828 2.66666 10.0001 2.66666V1.66666ZM16.3497 14.4957L17.0899 15.168C18.5383 13.5732 19.3334 11.2757 19.3334 9.16666H18.3334H17.3334C17.3334 10.8298 16.6905 12.633 15.6094 13.8234L16.3497 14.4957ZM10.0001 16.6667V17.6667C10.382 17.6667 10.759 17.6457 11.1296 17.605L11.0204 16.611L10.9112 15.617C10.613 15.6497 10.309 15.6667 10.0001 15.6667V16.6667ZM12.927 17.3181L13.4636 16.4743L12.7547 16.0234L12.218 16.8672L11.6814 17.711L12.3903 18.1619L12.927 17.3181ZM11.0204 16.611L11.1296 17.605C11.3169 17.5844 11.4163 17.5739 11.4871 17.5701C11.5539 17.5665 11.5245 17.5742 11.4602 17.5592L11.6867 16.5852L11.9133 15.6112C11.7105 15.564 11.5239 15.5653 11.3801 15.573C11.2404 15.5804 11.0759 15.5989 10.9112 15.617L11.0204 16.611ZM12.218 16.8672L12.7547 16.0234C12.557 15.8977 12.2581 15.6914 11.9133 15.6112L11.6867 16.5852L11.4602 17.5592C11.4062 17.5466 11.3837 17.5297 11.4231 17.5515C11.4435 17.5627 11.4728 17.58 11.5177 17.6077C11.5627 17.6356 11.6144 17.6685 11.6814 17.711L12.218 16.8672ZM15.8334 15.7222H14.8334C14.8334 16.4653 14.8313 16.9198 14.7896 17.2318C14.7478 17.5458 14.6962 17.4431 14.8334 17.3455L15.413 18.1604L15.9926 18.9754C16.5502 18.5788 16.7089 17.9701 16.7721 17.4962C16.8356 17.0204 16.8334 16.4053 16.8334 15.7222H15.8334ZM12.927 17.3181L12.3903 18.1619C12.9667 18.5285 13.4846 18.8604 13.9202 19.0623C14.3539 19.2632 14.9527 19.456 15.5866 19.1983L15.21 18.2719L14.8334 17.3455C14.9894 17.2821 15.0484 17.3807 14.7609 17.2475C14.4753 17.1152 14.0907 16.8731 13.4636 16.4743L12.927 17.3181ZM15.413 18.1604L14.8334 17.3455L14.8334 17.3455L15.21 18.2719L15.5866 19.1983C15.7301 19.14 15.8663 19.0651 15.9926 18.9754L15.413 18.1604ZM16.3497 14.4957L15.6094 13.8234C15.4854 13.96 15.3675 14.0893 15.276 14.2006C15.1868 14.309 15.0685 14.4634 14.9844 14.6575L15.902 15.0549L16.8197 15.4523C16.7905 15.5197 16.7651 15.5386 16.8206 15.4711C16.8736 15.4066 16.9522 15.3197 17.0899 15.168L16.3497 14.4957ZM15.8334 15.7222H16.8334C16.8334 15.6415 16.8334 15.5785 16.834 15.524C16.8347 15.4696 16.8358 15.4337 16.8373 15.4085C16.8403 15.3575 16.8431 15.3853 16.8245 15.4399L15.878 15.1171L14.9315 14.7944C14.8201 15.1211 14.8334 15.4848 14.8334 15.7222H15.8334ZM15.902 15.0549L14.9844 14.6575C14.9635 14.7058 14.9485 14.7446 14.9315 14.7944L15.878 15.1171L16.8245 15.4399C16.8262 15.435 16.8249 15.4389 16.8221 15.4461C16.8193 15.4533 16.8176 15.4571 16.8197 15.4523L15.902 15.0549ZM12.4286 6.73814L11.7215 7.44525L11.8645 7.58823L12.5716 6.88112L13.2787 6.17402L13.1357 6.03104L12.4286 6.73814ZM12.5716 9.23814L11.8645 8.53104L9.29297 11.1025L10.0001 11.8096L10.7072 12.5167L13.2787 9.94525L12.5716 9.23814ZM10.0001 11.8096V10.8096H7.50008V11.8096V12.8096H10.0001V11.8096ZM7.50008 11.8096H8.50008V9.30963H7.50008H6.50008V11.8096H7.50008ZM7.50008 9.30963L8.20719 10.0167L10.7787 7.44525L10.0716 6.73815L9.36446 6.03104L6.79297 8.60253L7.50008 9.30963ZM12.5716 6.88112L11.8645 7.58823C12.1248 7.84858 12.1248 8.27069 11.8645 8.53104L12.5716 9.23814L13.2787 9.94525C14.3201 8.90385 14.3201 7.21541 13.2787 6.17402L12.5716 6.88112ZM12.4286 6.73814L13.1357 6.03104C12.0943 4.98964 10.4059 4.98964 9.36446 6.03104L10.0716 6.73815L10.7787 7.44525C11.039 7.1849 11.4611 7.1849 11.7215 7.44525L12.4286 6.73814Z" fill="#161B22"/>
</g>
<defs>
<clipPath id="clip0_3603_1715">
<rect width="20" height="20" fill="white"/>
</clipPath>
</defs>
</svg>
