<svg width="20" height="20" viewBox="0 0 20 20" fill="none" xmlns="http://www.w3.org/2000/svg">
<g clip-path="url(#clip0_3608_1838)">
<path d="M18.3334 3.38722H19.3334C19.3334 2.95679 19.058 2.57465 18.6496 2.43854L18.3334 3.38722ZM1.66675 15.0539H0.666748C0.666748 15.4843 0.942178 15.8665 1.35052 16.0026L1.66675 15.0539ZM1.66675 3.38722L1.98298 2.43854C1.67803 2.33689 1.34281 2.38803 1.08204 2.57598C0.821269 2.76393 0.666748 3.06578 0.666748 3.38722H1.66675ZM4.04703 4.18065L3.7308 5.12933H3.7308L4.04703 4.18065ZM4.04703 15.8473L3.7308 16.796H3.7308L4.04703 15.8473ZM15.9531 2.5938L15.6369 3.54248V3.54248L15.9531 2.5938ZM10.8635 2.9555L10.4163 2.06108V2.06108L10.8635 2.9555ZM6.64728 4.77994L6.57639 3.78246V3.78246L6.64728 4.77994ZM9.13664 3.81894L9.58385 4.71337V4.71337L9.13664 3.81894ZM18.3334 3.38722H17.3334V9.63722H18.3334H19.3334V3.38722H18.3334ZM1.66675 15.0539H2.66675V3.38722H1.66675H0.666748V15.0539H1.66675ZM1.66675 3.38722L1.35052 4.33591L3.7308 5.12933L4.04703 4.18065L4.36326 3.23197L1.98298 2.43854L1.66675 3.38722ZM4.04703 15.8473L4.36326 14.8986L1.98298 14.1052L1.66675 15.0539L1.35052 16.0026L3.7308 16.796L4.04703 15.8473ZM15.9531 2.5938L15.6369 3.54248L18.0172 4.33591L18.3334 3.38722L18.6496 2.43854L16.2694 1.64511L15.9531 2.5938ZM10.8635 2.9555L11.3107 3.84993C12.6024 3.20411 13.0069 3.02161 13.4238 2.99199L13.3529 1.99451L13.282 0.997023C12.3761 1.0614 11.562 1.48824 10.4163 2.06108L10.8635 2.9555ZM15.9531 2.5938L16.2694 1.64511C15.0542 1.24005 14.1879 0.932641 13.282 0.997023L13.3529 1.99451L13.4238 2.99199C13.8406 2.96237 14.2669 3.08582 15.6369 3.54248L15.9531 2.5938ZM9.13664 15.4856L8.68943 14.5912C7.39779 15.237 6.99321 15.4195 6.57639 15.4491L6.64728 16.4466L6.71817 17.4441C7.62409 17.3797 8.43817 16.9529 9.58385 16.38L9.13664 15.4856ZM4.04703 15.8473L3.7308 16.796C4.94598 17.2011 5.81225 17.5085 6.71817 17.4441L6.64728 16.4466L6.57639 15.4491C6.15957 15.4787 5.73325 15.3553 4.36326 14.8986L4.04703 15.8473ZM4.04703 4.18065L3.7308 5.12933C4.94598 5.53439 5.81225 5.84181 6.71817 5.77743L6.64728 4.77994L6.57639 3.78246C6.15957 3.81208 5.73325 3.68863 4.36326 3.23197L4.04703 4.18065ZM9.13664 3.81894L8.68943 2.92452C7.39779 3.57034 6.99321 3.75283 6.57639 3.78246L6.64728 4.77994L6.71817 5.77743C7.62409 5.71304 8.43817 5.28621 9.58385 4.71337L9.13664 3.81894ZM9.13664 3.81894L9.58385 4.71337L11.3107 3.84993L10.8635 2.9555L10.4163 2.06108L8.68943 2.92452L9.13664 3.81894ZM6.66675 5.05389H5.66675V15.8872H6.66675H7.66675V5.05389H6.66675ZM13.3334 2.55389H12.3334V7.97056H13.3334H14.3334V2.55389H13.3334ZM16.6667 13.75H15.6667C15.6667 14.8085 14.8086 15.6667 13.7501 15.6667V16.6667V17.6667C15.9132 17.6667 17.6667 15.9131 17.6667 13.75H16.6667ZM13.7501 16.6667V15.6667C12.6915 15.6667 11.8334 14.8085 11.8334 13.75H10.8334H9.83341C9.83341 15.9131 11.587 17.6667 13.7501 17.6667V16.6667ZM10.8334 13.75H11.8334C11.8334 12.6914 12.6915 11.8333 13.7501 11.8333V10.8333V9.83332C11.587 9.83332 9.83341 11.5869 9.83341 13.75H10.8334ZM13.7501 10.8333V11.8333C14.8086 11.8333 15.6667 12.6914 15.6667 13.75H16.6667H17.6667C17.6667 11.5869 15.9132 9.83332 13.7501 9.83332V10.8333ZM18.3334 18.3333L19.0405 17.6262L16.5405 15.1262L15.8334 15.8333L15.1263 16.5404L17.6263 19.0404L18.3334 18.3333Z" fill="#161B22"/>
</g>
<defs>
<clipPath id="clip0_3608_1838">
<rect width="20" height="20" fill="white"/>
</clipPath>
</defs>
</svg>
